<svg width="16" height="14" viewBox="0 0 16 14" fill="none" xmlns="http://www.w3.org/2000/svg">
<path d="M14.5143 13.6667L9.11428 9.00001C8.68571 9.29631 8.19285 9.53087 7.6357 9.70371C7.07856 9.87655 6.48571 9.96297 5.85713 9.96297C4.29999 9.96297 2.98228 9.49705 1.90399 8.5652C0.825134 7.63285 0.285706 6.49384 0.285706 5.14816C0.285706 3.80248 0.825134 2.66347 1.90399 1.73112C2.98228 0.799269 4.29999 0.333344 5.85713 0.333344C7.41428 0.333344 8.73228 0.799269 9.81113 1.73112C10.8894 2.66347 11.4286 3.80248 11.4286 5.14816C11.4286 5.69137 11.3286 6.20371 11.1286 6.6852C10.9286 7.16668 10.6571 7.5926 10.3143 7.96297L15.7143 12.6296L14.5143 13.6667ZM5.85713 8.48149C6.92856 8.48149 7.83942 8.15754 8.5897 7.50964C9.33942 6.86124 9.71428 6.07408 9.71428 5.14816C9.71428 4.22223 9.33942 3.43507 8.5897 2.78668C7.83942 2.13878 6.92856 1.81482 5.85713 1.81482C4.78571 1.81482 3.87485 2.13878 3.12456 2.78668C2.37485 3.43507 1.99999 4.22223 1.99999 5.14816C1.99999 6.07408 2.37485 6.86124 3.12456 7.50964C3.87485 8.15754 4.78571 8.48149 5.85713 8.48149Z" fill="#F8F8F8"/>
</svg>
