<svg width="26" height="21" viewBox="0 0 26 21" fill="none" xmlns="http://www.w3.org/2000/svg">
<path d="M21.9993 1.74523C20.3526 0.931691 18.5697 0.341221 16.7125 6.03568e-05C16.6962 -0.00049154 16.68 0.00274697 16.665 0.00954824C16.65 0.0163495 16.6367 0.0265484 16.6258 0.0394253C16.4029 0.472437 16.1429 1.03666 15.9696 1.46968C13.9997 1.15476 11.9964 1.15476 10.0266 1.46968C9.85324 1.02354 9.59323 0.472437 9.35798 0.0394253C9.3456 0.0131822 9.30846 6.03568e-05 9.27131 6.03568e-05C7.41412 0.341221 5.6436 0.931691 3.9845 1.74523C3.97212 1.74523 3.95974 1.75835 3.94736 1.77147C0.579648 7.11195 -0.348949 12.3081 0.109159 17.4517C0.109159 17.478 0.12154 17.5042 0.146302 17.5174C2.37493 19.2494 4.5169 20.2991 6.6341 20.9946C6.67124 21.0077 6.70839 20.9946 6.72077 20.9683C7.21602 20.2466 7.66175 19.4856 8.04557 18.6852C8.07033 18.6327 8.04557 18.5802 7.99604 18.5671C7.29031 18.2784 6.62172 17.9372 5.96551 17.5436C5.91599 17.5174 5.91598 17.4386 5.95313 17.3993C6.08932 17.2943 6.22552 17.1762 6.36171 17.0712C6.38647 17.045 6.42362 17.045 6.44838 17.0581C10.7075 19.1182 15.301 19.1182 19.5106 17.0581C19.5354 17.045 19.5725 17.045 19.5973 17.0712C19.7335 17.1893 19.8697 17.2943 20.0059 17.4124C20.0554 17.4517 20.0554 17.5305 19.9935 17.5567C19.3497 17.9635 18.6687 18.2915 17.963 18.5802C17.9135 18.5933 17.9011 18.6589 17.9135 18.6983C18.3097 19.4987 18.7554 20.2598 19.2383 20.9814C19.2754 20.9946 19.3125 21.0077 19.3497 20.9946C21.4793 20.2991 23.6212 19.2494 25.8499 17.5174C25.8746 17.5042 25.887 17.478 25.887 17.4517C26.4318 11.5077 24.9832 6.3509 22.0488 1.77147C22.0364 1.75835 22.024 1.74523 21.9993 1.74523ZM8.68939 14.3157C7.41412 14.3157 6.34933 13.0691 6.34933 11.5339C6.34933 9.99869 7.38936 8.75214 8.68939 8.75214C10.0018 8.75214 11.0418 10.0118 11.0295 11.5339C11.0295 13.0691 9.98943 14.3157 8.68939 14.3157ZM17.3192 14.3157C16.0439 14.3157 14.9791 13.0691 14.9791 11.5339C14.9791 9.99869 16.0191 8.75214 17.3192 8.75214C18.6316 8.75214 19.6716 10.0118 19.6592 11.5339C19.6592 13.0691 18.6316 14.3157 17.3192 14.3157Z" fill="#9550A1"/>
</svg>
