<svg width="24" height="21" viewBox="0 0 24 21" fill="none" xmlns="http://www.w3.org/2000/svg">
<path d="M23.9438 3.09419C23.8932 2.97256 23.8079 2.8685 23.6985 2.795C23.5891 2.7215 23.4604 2.68181 23.3286 2.68089H19.7939C19.357 1.87957 18.7144 1.20887 17.9319 0.737718C17.1495 0.266564 16.2556 0.0119528 15.342 4.90475e-05C13.9694 -0.00591031 12.6503 0.5314 11.6734 1.49439C10.6965 2.45737 10.1414 3.76761 10.1296 5.13833V6.11014C5.38686 4.98195 1.4719 1.12824 1.42715 1.09473C1.34092 1.00972 1.23325 0.949607 1.11556 0.920776C0.997881 0.891946 0.874576 0.895471 0.758737 0.930977C0.642897 0.966482 0.538845 1.03264 0.457622 1.12244C0.376399 1.21224 0.321035 1.32232 0.297408 1.441C-0.675739 6.75801 0.923802 10.3101 2.43386 12.3543C3.23475 13.4488 4.21857 14.3972 5.34211 15.158C3.60835 17.258 0.756018 18.3527 0.722461 18.3638C0.627161 18.3989 0.541245 18.4554 0.471402 18.529C0.401558 18.6027 0.349671 18.6914 0.319779 18.7883C0.288039 18.8829 0.278591 18.9835 0.292172 19.0823C0.305754 19.1811 0.341997 19.2755 0.398079 19.358C0.509935 19.5255 1.60612 21 5.4316 21C13.228 21 19.7492 14.9793 20.3756 7.2495L23.7984 3.82025C23.8954 3.72948 23.9615 3.61069 23.9876 3.4805C24.0137 3.35031 23.9984 3.21525 23.9438 3.09419V3.09419ZM19.2458 6.47876C19.1295 6.59467 19.0615 6.75037 19.0557 6.91439C18.5971 14.0633 12.6128 19.6596 5.4316 19.6596C3.8768 19.6596 2.88128 19.3915 2.28845 19.1234C3.55242 18.4867 5.62175 17.2356 6.88573 15.3367C6.93608 15.258 6.96997 15.1699 6.98535 15.0778C7.00073 14.9856 6.99728 14.8913 6.97521 14.8005C6.95137 14.7077 6.90815 14.6208 6.8484 14.5458C6.78865 14.4707 6.7137 14.4091 6.62846 14.3649C6.60609 14.3649 4.92825 13.4936 3.47412 11.5053C1.74035 9.13726 1.05803 6.24418 1.43834 2.9043C3.07144 4.2894 6.5949 6.90322 10.6888 7.58461C10.7852 7.60288 10.8844 7.59948 10.9793 7.57465C11.0742 7.54982 11.1623 7.50418 11.2373 7.44106C11.3123 7.37794 11.3723 7.29892 11.4128 7.20975C11.4534 7.12057 11.4735 7.02349 11.4718 6.92556V5.13833C11.4807 4.12607 11.8903 3.15845 12.6113 2.44684C13.3323 1.73523 14.306 1.33748 15.3197 1.34047C16.0521 1.35103 16.7661 1.57138 17.3769 1.97533C17.9876 2.37927 18.4693 2.94983 18.7648 3.61919C18.8159 3.7396 18.9016 3.84213 19.0112 3.91374C19.1207 3.98535 19.2491 4.02279 19.38 4.02132H21.7066L19.2458 6.47876Z" fill="#9550A1"/>
</svg>
