<svg width="29" height="19" viewBox="0 0 29 19" fill="none" xmlns="http://www.w3.org/2000/svg">
<path fill-rule="evenodd" clip-rule="evenodd" d="M25.4316 12.7982C25.4316 12.7982 27.7416 15.2724 28.313 16.4173C28.3241 16.4338 28.3328 16.4521 28.3387 16.4715C28.5716 16.8945 28.6287 17.226 28.5144 17.4708C28.3216 17.8751 27.6687 18.0781 27.4473 18.0951H23.3644C23.0801 18.0951 22.4887 18.0146 21.7687 17.4754C21.2187 17.0587 20.6716 16.3724 20.1416 15.7015C19.3501 14.7054 18.6659 13.8409 17.973 13.8409C17.8855 13.8407 17.7986 13.8564 17.7159 13.8873C17.1916 14.0671 16.5259 14.8773 16.5259 17.0354C16.5259 17.7109 16.0344 18.0951 15.6901 18.0951H13.8201C13.183 18.0951 9.86585 17.8535 6.92442 14.49C3.32013 10.3721 0.0829859 2.11139 0.0515573 2.03857C-0.149871 1.50408 0.272986 1.21281 0.730129 1.21281H4.85299C5.40585 1.21281 5.58585 1.57534 5.71156 1.90069C5.85728 2.27406 6.39728 3.76755 7.28299 5.4454C8.71728 8.17521 9.59871 9.28603 10.303 9.28603C10.4353 9.28645 10.5654 9.24905 10.6801 9.17758C11.6001 8.62914 11.4287 5.06583 11.3859 4.33148C11.3859 4.18895 11.3844 2.74039 10.913 2.04012C10.5759 1.53816 10.0016 1.34295 9.65442 1.27169C9.74728 1.12606 9.94442 0.902961 10.1973 0.771274C10.8273 0.430436 11.9659 0.380859 13.0959 0.380859H13.723C14.9487 0.399451 15.2659 0.48466 15.7116 0.607052C16.6087 0.839441 16.6259 1.46999 16.5473 3.61727C16.5244 4.23078 16.5001 4.92175 16.5001 5.73512C16.5001 5.90863 16.493 6.10229 16.493 6.29905C16.4659 7.40057 16.4301 8.64154 17.1473 9.15124C17.2403 9.21408 17.3477 9.24736 17.4573 9.2473C17.7059 9.2473 18.4501 9.2473 20.4687 5.49033C21.3544 3.83107 22.0401 1.87435 22.0873 1.72717C22.1273 1.64506 22.2473 1.41422 22.393 1.32126C22.4967 1.26145 22.6128 1.23158 22.7302 1.2345H27.5802C28.1087 1.2345 28.4673 1.32126 28.5373 1.53816C28.6544 1.88984 28.5144 2.96348 26.3002 6.21074C25.9273 6.75143 25.6002 7.21931 25.313 7.62832C23.3059 10.4852 23.3059 10.6292 25.4316 12.7982Z" fill="#9550A1"/>
</svg>
